ffmpeg version 3.1.5 Copyright (c) 2000-2016 the FFmpeg developers
  built with Apple LLVM version 7.0.2 (clang-700.1.81)
  configuration: --prefix=/usr/local/Cellar/ffmpeg/3.1.5 --enable-shared --enable-pthreads --enable-gpl --enable-version3 --enable-hardcoded-tables --enable-avresample --cc=clang --host-cflags= --host-ldflags= --enable-opencl --enable-libx264 --enable-libmp3lame --enable-libxvid --disable-lzma --enable-vda
  libavutil      55. 28.100 / 55. 28.100
  libavcodec     57. 48.101 / 57. 48.101
  libavformat    57. 41.100 / 57. 41.100
  libavdevice    57.  0.101 / 57.  0.101
  libavfilter     6. 47.100 /  6. 47.100
  libavresample   3.  0.  0 /  3.  0.  0
  libswscale      4.  1.100 /  4.  1.100
  libswresample   2.  1.100 /  2.  1.100
  libpostproc    54.  0.100 / 54.  0.100
Input #0, mov,mp4,m4a,3gp,3g2,mj2, from 'videos/output.mp4':
  Metadata:
    major_brand     : isom
    minor_version   : 512
    compatible_brands: isomiso2avc1mp41
    encoder         : Lavf57.41.100
  Duration: 00:01:44.68, start: 0.000000, bitrate: 791 kb/s
    Stream #0:0(und): Video: h264 (High) (avc1 / 0x31637661), yuv420p, 1280x720 [SAR 1:1 DAR 16:9], 788 kb/s, 24.98 fps, 25 tbr, 12800 tbn, 50 tbc (default)
    Metadata:
      handler_name    : VideoHandler
[Parsed_showinfo_1 @ 0x7f9b3ad22940] config in time_base: 1/12800, frame_rate: 25/1
[Parsed_showinfo_1 @ 0x7f9b3ad22940] config out time_base: 0/0, frame_rate: 0/0
[null @ 0x7f9b3b806600] Using AVStream.codec to pass codec parameters to muxers is deprecated, use AVStream.codecpar instead.
Output #0, null, to 'pipe:':
  Metadata:
    major_brand     : isom
    minor_version   : 512
    compatible_brands: isomiso2avc1mp41
    encoder         : Lavf57.41.100
    Stream #0:0(und): Video: wrapped_avframe, rgb24, 1280x720 [SAR 1:1 DAR 16:9], q=2-31, 200 kb/s, 25 fps, 25 tbn, 25 tbc (default)
    Metadata:
      handler_name    : VideoHandler
      encoder         : Lavc57.48.101 wrapped_avframe
Stream mapping:
  Stream #0:0 -> #0:0 (h264 (native) -> wrapped_avframe (native))
Press [q] to stop, [?] for help
[Parsed_showinfo_1 @ 0x7f9b3ad22940] n:   0 pts:  53760 pts_time:4.2     pos:   477749 fmt:rgb24 sar:1/1 s:1280x720 i:P iskey:1 type:I checksum:A1375BBE plane_checksum:[A1375BBE] mean:[107 ] stdev:[55.8 ]
frame=    1 fps=0.0 q=-0.0 size=N/A time=00:00:04.24 bitrate=N/A speed=8.46x    [Parsed_showinfo_1 @ 0x7f9b3ad22940] n:   1 pts:  97280 pts_time:7.6     pos:   766342 fmt:rgb24 sar:1/1 s:1280x720 i:P iskey:1 type:I checksum:0FA1D0E2 plane_checksum:[0FA1D0E2] mean:[139 ] stdev:[48.7 ]
frame=    2 fps=2.0 q=-0.0 size=N/A time=00:00:07.64 bitrate=N/A speed=7.59x    [Parsed_showinfo_1 @ 0x7f9b3ad22940] n:   2 pts: 165888 pts_time:12.96   pos:  1537134 fmt:rgb24 sar:1/1 s:1280x720 i:P iskey:1 type:I checksum:BCD89A25 plane_checksum:[BCD89A25] mean:[160 ] stdev:[45.9 ]
[Parsed_showinfo_1 @ 0x7f9b3ad22940] n:   3 pts: 205824 pts_time:16.08   pos:  1873250 fmt:rgb24 sar:1/1 s:1280x720 i:P iskey:1 type:I checksum:45650E8F plane_checksum:[45650E8F] mean:[126 ] stdev:[43.6 ]
[Parsed_showinfo_1 @ 0x7f9b3ad22940] n:   4 pts: 247808 pts_time:19.36   pos:  2274158 fmt:rgb24 sar:1/1 s:1280x720 i:P iskey:1 type:I checksum:B7C59D23 plane_checksum:[B7C59D23] mean:[123 ] stdev:[53.9 ]
frame=    5 fps=3.3 q=-0.0 size=N/A time=00:00:19.40 bitrate=N/A speed=12.9x    [Parsed_showinfo_1 @ 0x7f9b3ad22940] n:   5 pts: 289792 pts_time:22.64   pos:  2595261 fmt:rgb24 sar:1/1 s:1280x720 i:P iskey:1 type:I checksum:AC7BCD6B plane_checksum:[AC7BCD6B] mean:[158 ] stdev:[50.0 ]
[Parsed_showinfo_1 @ 0x7f9b3ad22940] n:   6 pts: 329728 pts_time:25.76   pos:  3015092 fmt:rgb24 sar:1/1 s:1280x720 i:P iskey:1 type:I checksum:40B817CA plane_checksum:[40B817CA] mean:[142 ] stdev:[58.0 ]
frame=    7 fps=3.5 q=-0.0 size=N/A time=00:00:25.80 bitrate=N/A speed=12.9x    [Parsed_showinfo_1 @ 0x7f9b3ad22940] n:   7 pts: 371712 pts_time:29.04   pos:  3364962 fmt:rgb24 sar:1/1 s:1280x720 i:P iskey:1 type:I checksum:F5F3D37E plane_checksum:[F5F3D37E] mean:[116 ] stdev:[12.4 ]
frame=    8 fps=3.2 q=-0.0 size=N/A time=00:00:29.08 bitrate=N/A speed=11.6x    [Parsed_showinfo_1 @ 0x7f9b3ad22940] n:   8 pts: 451584 pts_time:35.28   pos:  4181411 fmt:rgb24 sar:1/1 s:1280x720 i:P iskey:1 type:I checksum:F0CDE1B8 plane_checksum:[F0CDE1B8] mean:[142 ] stdev:[50.8 ]
frame=    9 fps=3.0 q=-0.0 size=N/A time=00:00:35.32 bitrate=N/A speed=11.7x    [Parsed_showinfo_1 @ 0x7f9b3ad22940] n:   9 pts: 575488 pts_time:44.96   pos:  4781235 fmt:rgb24 sar:1/1 s:1280x720 i:P iskey:1 type:I checksum:5E91046D plane_checksum:[5E91046D] mean:[196 ] stdev:[43.3 ]
frame=   10 fps=2.8 q=-0.0 size=N/A time=00:00:45.00 bitrate=N/A speed=12.8x    [Parsed_showinfo_1 @ 0x7f9b3ad22940] n:  10 pts: 649728 pts_time:50.76   pos:  5050891 fmt:rgb24 sar:1/1 s:1280x720 i:P iskey:1 type:I checksum:ABDC1CEA plane_checksum:[ABDC1CEA] mean:[132 ] stdev:[50.8 ]
frame=   11 fps=2.7 q=-0.0 size=N/A time=00:00:50.80 bitrate=N/A speed=12.7x    [Parsed_showinfo_1 @ 0x7f9b3ad22940] n:  11 pts: 717824 pts_time:56.08   pos:  5596369 fmt:rgb24 sar:1/1 s:1280x720 i:P iskey:1 type:I checksum:C5F011A6 plane_checksum:[C5F011A6] mean:[134 ] stdev:[49.3 ]
frame=   12 fps=2.7 q=-0.0 size=N/A time=00:00:56.12 bitrate=N/A speed=12.4x    [Parsed_showinfo_1 @ 0x7f9b3ad22940] n:  12 pts: 820224 pts_time:64.08   pos:  6615415 fmt:rgb24 sar:1/1 s:1280x720 i:P iskey:1 type:I checksum:E3B858CD plane_checksum:[E3B858CD] mean:[155 ] stdev:[62.3 ]
[Parsed_showinfo_1 @ 0x7f9b3ad22940] n:  13 pts: 856064 pts_time:66.88   pos:  6883342 fmt:rgb24 sar:1/1 s:1280x720 i:P iskey:1 type:I checksum:08AEBFE7 plane_checksum:[08AEBFE7] mean:[146 ] stdev:[66.5 ]
[Parsed_showinfo_1 @ 0x7f9b3ad22940] n:  14 pts: 889856 pts_time:69.52   pos:  7137238 fmt:rgb24 sar:1/1 s:1280x720 i:P iskey:1 type:I checksum:902D575E plane_checksum:[902D575E] mean:[147 ] stdev:[45.0 ]
frame=   15 fps=3.0 q=-0.0 size=N/A time=00:01:09.56 bitrate=N/A speed=13.9x    [Parsed_showinfo_1 @ 0x7f9b3ad22940] n:  15 pts: 933376 pts_time:72.92   pos:  7549337 fmt:rgb24 sar:1/1 s:1280x720 i:P iskey:1 type:I checksum:037B8708 plane_checksum:[037B8708] mean:[129 ] stdev:[23.8 ]
[Parsed_showinfo_1 @ 0x7f9b3ad22940] n:  16 pts: 975360 pts_time:76.2    pos:  7864780 fmt:rgb24 sar:1/1 s:1280x720 i:P iskey:1 type:I checksum:2C5FA5F2 plane_checksum:[2C5FA5F2] mean:[154 ] stdev:[54.8 ]
frame=   17 fps=3.1 q=-0.0 size=N/A time=00:01:16.24 bitrate=N/A speed=13.8x    [Parsed_showinfo_1 @ 0x7f9b3ad22940] n:  17 pts:1017344 pts_time:79.48   pos:  8132161 fmt:rgb24 sar:1/1 s:1280x720 i:P iskey:1 type:I checksum:697F17C6 plane_checksum:[697F17C6] mean:[168 ] stdev:[30.2 ]
[Parsed_showinfo_1 @ 0x7f9b3ad22940] n:  18 pts:1037312 pts_time:81.04   pos:  8300824 fmt:rgb24 sar:1/1 s:1280x720 i:P iskey:1 type:I checksum:20AE82C9 plane_checksum:[20AE82C9] mean:[221 ] stdev:[35.2 ]
[Parsed_showinfo_1 @ 0x7f9b3ad22940] n:  19 pts:1057280 pts_time:82.6    pos:  8392561 fmt:rgb24 sar:1/1 s:1280x720 i:P iskey:1 type:I checksum:8952CD88 plane_checksum:[8952CD88] mean:[141 ] stdev:[65.1 ]
[Parsed_showinfo_1 @ 0x7f9b3ad22940] n:  20 pts:1076736 pts_time:84.12   pos:  8540230 fmt:rgb24 sar:1/1 s:1280x720 i:P iskey:1 type:I checksum:7950F839 plane_checksum:[7950F839] mean:[133 ] stdev:[45.1 ]
frame=   21 fps=3.5 q=-0.0 size=N/A time=00:01:24.16 bitrate=N/A speed=  14x    [Parsed_showinfo_1 @ 0x7f9b3ad22940] n:  21 pts:1133568 pts_time:88.56   pos:  9024986 fmt:rgb24 sar:1/1 s:1280x720 i:P iskey:1 type:I checksum:E50D0D56 plane_checksum:[E50D0D56] mean:[134 ] stdev:[38.1 ]
frame=   22 fps=3.4 q=-0.0 size=N/A time=00:01:28.60 bitrate=N/A speed=13.6x    [Parsed_showinfo_1 @ 0x7f9b3ad22940] n:  22 pts:1295872 pts_time:101.24  pos:  9964473 fmt:rgb24 sar:1/1 s:1280x720 i:P iskey:1 type:I checksum:41B63690 plane_checksum:[41B63690] mean:[155 ] stdev:[66.9 ]
frame=   23 fps=3.3 q=-0.0 size=N/A time=00:01:41.28 bitrate=N/A speed=14.4x    [Parsed_showinfo_1 @ 0x7f9b3ad22940] n:  23 pts:1337856 pts_time:104.52  pos: 10304082 fmt:rgb24 sar:1/1 s:1280x720 i:P iskey:1 type:I checksum:06FF2D73 plane_checksum:[06FF2D73] mean:[204 ] stdev:[52.9 ]
frame=   24 fps=3.4 q=-0.0 Lsize=N/A time=00:01:44.56 bitrate=N/A speed=14.8x    
video:11kB audio:0kB subtitle:0kB other streams:0kB global headers:0kB muxing overhead: unknown
